<mxfile host="app.diagrams.net" modified="2022-05-14T14:11:08.527Z" agent="5.0 (X11)" etag="EqFFl_bDoA3ShBbS65uv" version="18.0.4" type="github">
  <diagram id="QX2g_H7A-oysbLNpwRhZ" name="Page-1">
    <mxGraphModel dx="580" dy="1187" grid="1" gridSize="10" guides="1" tooltips="1" connect="1" arrows="1" fold="1" page="1" pageScale="1" pageWidth="850" pageHeight="1100" math="0" shadow="0">
      <root>
        <mxCell id="0" />
        <mxCell id="1" parent="0" />
        <mxCell id="48glNEHDDhysdigHE6gb-4" value="" style="endArrow=classic;html=1;rounded=0;fillColor=#f5f5f5;strokeColor=#666666;" edge="1" parent="1">
          <mxGeometry width="50" height="50" relative="1" as="geometry">
            <mxPoint x="380" y="680" as="sourcePoint" />
            <mxPoint x="380" y="280" as="targetPoint" />
          </mxGeometry>
        </mxCell>
        <mxCell id="48glNEHDDhysdigHE6gb-5" value="" style="endArrow=classic;html=1;rounded=0;fillColor=#f5f5f5;strokeColor=#666666;" edge="1" parent="1">
          <mxGeometry width="50" height="50" relative="1" as="geometry">
            <mxPoint x="360" y="640" as="sourcePoint" />
            <mxPoint x="760" y="640" as="targetPoint" />
          </mxGeometry>
        </mxCell>
        <mxCell id="48glNEHDDhysdigHE6gb-6" value="x" style="text;html=1;strokeColor=none;fillColor=none;align=center;verticalAlign=middle;whiteSpace=wrap;rounded=0;" vertex="1" parent="1">
          <mxGeometry x="710" y="650" width="60" height="30" as="geometry" />
        </mxCell>
        <mxCell id="48glNEHDDhysdigHE6gb-7" value="y" style="text;html=1;strokeColor=none;fillColor=none;align=center;verticalAlign=middle;whiteSpace=wrap;rounded=0;" vertex="1" parent="1">
          <mxGeometry x="330" y="280" width="60" height="30" as="geometry" />
        </mxCell>
        <mxCell id="48glNEHDDhysdigHE6gb-8" value="A(x&lt;font size=&quot;1&quot;&gt;&lt;sub style=&quot;font-size: 8px;&quot;&gt;1&lt;/sub&gt;&lt;/font&gt;, y&lt;font size=&quot;1&quot;&gt;&lt;sub style=&quot;font-size: 8px;&quot;&gt;1&lt;/sub&gt;&lt;/font&gt;)" style="text;html=1;strokeColor=none;fillColor=none;align=center;verticalAlign=middle;whiteSpace=wrap;rounded=0;" vertex="1" parent="1">
          <mxGeometry x="440" y="320" width="60" height="30" as="geometry" />
        </mxCell>
        <mxCell id="48glNEHDDhysdigHE6gb-9" value="B(x&lt;font size=&quot;1&quot;&gt;&lt;sub style=&quot;font-size: 8px;&quot;&gt;2&lt;/sub&gt;&lt;/font&gt;, y&lt;font size=&quot;1&quot;&gt;&lt;sub style=&quot;font-size: 8px;&quot;&gt;2&lt;/sub&gt;&lt;/font&gt;)" style="text;html=1;strokeColor=none;fillColor=none;align=center;verticalAlign=middle;whiteSpace=wrap;rounded=0;" vertex="1" parent="1">
          <mxGeometry x="690" y="600" width="60" height="30" as="geometry" />
        </mxCell>
        <mxCell id="48glNEHDDhysdigHE6gb-14" style="edgeStyle=orthogonalEdgeStyle;rounded=0;orthogonalLoop=1;jettySize=auto;html=1;fontSize=8;endArrow=none;endFill=0;fillColor=#6a00ff;strokeColor=#3700CC;exitX=0.5;exitY=1;exitDx=0;exitDy=0;entryX=0.5;entryY=0;entryDx=0;entryDy=0;" edge="1" parent="1" source="48glNEHDDhysdigHE6gb-10" target="48glNEHDDhysdigHE6gb-11">
          <mxGeometry relative="1" as="geometry">
            <mxPoint x="474" y="590" as="targetPoint" />
            <mxPoint x="474" y="380" as="sourcePoint" />
            <Array as="points">
              <mxPoint x="470" y="590" />
            </Array>
          </mxGeometry>
        </mxCell>
        <mxCell id="48glNEHDDhysdigHE6gb-10" value="" style="ellipse;whiteSpace=wrap;html=1;fontSize=8;fillColor=#f0a30a;strokeColor=#BD7000;fontColor=#000000;" vertex="1" parent="1">
          <mxGeometry x="465" y="350" width="10" height="10" as="geometry" />
        </mxCell>
        <mxCell id="48glNEHDDhysdigHE6gb-11" value="" style="ellipse;whiteSpace=wrap;html=1;fontSize=8;fillColor=#e3c800;strokeColor=#B09500;fontColor=#000000;" vertex="1" parent="1">
          <mxGeometry x="715" y="590" width="10" height="10" as="geometry" />
        </mxCell>
        <mxCell id="48glNEHDDhysdigHE6gb-12" value="" style="endArrow=none;html=1;rounded=0;fontSize=8;entryX=0.5;entryY=0;entryDx=0;entryDy=0;exitX=0.5;exitY=1;exitDx=0;exitDy=0;fillColor=#a20025;strokeColor=#6F0000;" edge="1" parent="1" source="48glNEHDDhysdigHE6gb-10" target="48glNEHDDhysdigHE6gb-11">
          <mxGeometry width="50" height="50" relative="1" as="geometry">
            <mxPoint x="470" y="430" as="sourcePoint" />
            <mxPoint x="520" y="380" as="targetPoint" />
          </mxGeometry>
        </mxCell>
        <mxCell id="48glNEHDDhysdigHE6gb-17" value="" style="endArrow=none;html=1;rounded=0;fontSize=8;fillColor=#fff2cc;strokeColor=#d6b656;entryX=0.491;entryY=-0.109;entryDx=0;entryDy=0;entryPerimeter=0;" edge="1" parent="1" target="48glNEHDDhysdigHE6gb-11">
          <mxGeometry width="50" height="50" relative="1" as="geometry">
            <mxPoint x="470" y="360" as="sourcePoint" />
            <mxPoint x="710" y="590" as="targetPoint" />
            <Array as="points">
              <mxPoint x="720" y="360" />
            </Array>
          </mxGeometry>
        </mxCell>
        <mxCell id="48glNEHDDhysdigHE6gb-20" value="Maximizes speed" style="text;html=1;strokeColor=none;fillColor=none;align=center;verticalAlign=middle;whiteSpace=wrap;rounded=0;fontSize=8;fontColor=#000000;" vertex="1" parent="1">
          <mxGeometry x="800" y="440" width="50" height="40" as="geometry" />
        </mxCell>
        <mxCell id="48glNEHDDhysdigHE6gb-22" value="" style="endArrow=none;html=1;rounded=0;fontSize=8;fontColor=#A680B8;fillColor=#6a00ff;strokeColor=#3700CC;" edge="1" parent="1">
          <mxGeometry width="50" height="50" relative="1" as="geometry">
            <mxPoint x="460" y="480" as="sourcePoint" />
            <mxPoint x="480" y="480" as="targetPoint" />
            <Array as="points">
              <mxPoint x="470" y="490" />
            </Array>
          </mxGeometry>
        </mxCell>
        <mxCell id="48glNEHDDhysdigHE6gb-23" value="" style="endArrow=none;html=1;rounded=0;fontSize=8;fontColor=#A680B8;fillColor=#fff2cc;strokeColor=#d6b656;" edge="1" parent="1">
          <mxGeometry width="50" height="50" relative="1" as="geometry">
            <mxPoint x="710" y="480" as="sourcePoint" />
            <mxPoint x="730" y="480" as="targetPoint" />
            <Array as="points">
              <mxPoint x="720" y="490" />
            </Array>
          </mxGeometry>
        </mxCell>
        <mxCell id="48glNEHDDhysdigHE6gb-26" value="" style="endArrow=none;html=1;rounded=0;fontSize=8;fontColor=#A680B8;fillColor=#a20025;strokeColor=#6F0000;" edge="1" parent="1">
          <mxGeometry width="50" height="50" relative="1" as="geometry">
            <mxPoint x="601" y="490" as="sourcePoint" />
            <mxPoint x="611" y="480" as="targetPoint" />
            <Array as="points">
              <mxPoint x="611" y="490" />
            </Array>
          </mxGeometry>
        </mxCell>
        <mxCell id="48glNEHDDhysdigHE6gb-27" value="" style="endArrow=none;html=1;rounded=0;fontSize=8;fontColor=#A680B8;fillColor=#fff2cc;strokeColor=#d6b656;" edge="1" parent="1">
          <mxGeometry width="50" height="50" relative="1" as="geometry">
            <mxPoint x="600" y="370" as="sourcePoint" />
            <mxPoint x="600" y="350" as="targetPoint" />
            <Array as="points">
              <mxPoint x="610" y="360" />
            </Array>
          </mxGeometry>
        </mxCell>
        <mxCell id="48glNEHDDhysdigHE6gb-28" value="" style="endArrow=none;html=1;rounded=0;fontSize=8;fontColor=#A680B8;fillColor=#6a00ff;strokeColor=#3700CC;" edge="1" parent="1">
          <mxGeometry width="50" height="50" relative="1" as="geometry">
            <mxPoint x="600" y="600" as="sourcePoint" />
            <mxPoint x="600" y="580.0000000000001" as="targetPoint" />
            <Array as="points">
              <mxPoint x="610" y="590" />
            </Array>
          </mxGeometry>
        </mxCell>
        <mxCell id="48glNEHDDhysdigHE6gb-32" value="" style="curved=1;endArrow=none;html=1;rounded=0;fontSize=8;fontColor=#000000;exitX=0.5;exitY=1;exitDx=0;exitDy=0;endFill=0;strokeWidth=2;fillColor=#60a917;strokeColor=#97D077;" edge="1" parent="1" source="48glNEHDDhysdigHE6gb-10">
          <mxGeometry width="50" height="50" relative="1" as="geometry">
            <mxPoint x="570" y="410" as="sourcePoint" />
            <mxPoint x="720" y="590" as="targetPoint" />
            <Array as="points">
              <mxPoint x="480" y="580" />
            </Array>
          </mxGeometry>
        </mxCell>
        <mxCell id="48glNEHDDhysdigHE6gb-34" value="Minimizes distances" style="text;html=1;strokeColor=none;fillColor=none;align=center;verticalAlign=middle;whiteSpace=wrap;rounded=0;fontSize=8;fontColor=#000000;" vertex="1" parent="1">
          <mxGeometry x="800" y="400" width="50" height="40" as="geometry" />
        </mxCell>
        <mxCell id="48glNEHDDhysdigHE6gb-35" value="Hasn&#39;t had change to accelerate" style="text;html=1;strokeColor=none;fillColor=none;align=center;verticalAlign=middle;whiteSpace=wrap;rounded=0;fontSize=8;fontColor=#000000;" vertex="1" parent="1">
          <mxGeometry x="800" y="360" width="50" height="40" as="geometry" />
        </mxCell>
        <mxCell id="48glNEHDDhysdigHE6gb-37" value="" style="endArrow=none;html=1;rounded=0;fontSize=8;fontColor=#7EA6E0;strokeWidth=3;fillColor=#fff2cc;strokeColor=#d6b656;" edge="1" parent="1">
          <mxGeometry width="50" height="50" relative="1" as="geometry">
            <mxPoint x="770" y="380" as="sourcePoint" />
            <mxPoint x="790" y="380" as="targetPoint" />
          </mxGeometry>
        </mxCell>
        <mxCell id="48glNEHDDhysdigHE6gb-38" value="" style="endArrow=none;html=1;rounded=0;fontSize=8;fontColor=#7EA6E0;strokeWidth=3;fillColor=#a20025;strokeColor=#6F0000;" edge="1" parent="1">
          <mxGeometry width="50" height="50" relative="1" as="geometry">
            <mxPoint x="771" y="421" as="sourcePoint" />
            <mxPoint x="791" y="421" as="targetPoint" />
          </mxGeometry>
        </mxCell>
        <mxCell id="48glNEHDDhysdigHE6gb-39" value="" style="endArrow=none;html=1;rounded=0;fontSize=8;fontColor=#7EA6E0;strokeWidth=3;fillColor=#6a00ff;strokeColor=#3700CC;" edge="1" parent="1">
          <mxGeometry width="50" height="50" relative="1" as="geometry">
            <mxPoint x="770" y="459" as="sourcePoint" />
            <mxPoint x="790" y="459" as="targetPoint" />
          </mxGeometry>
        </mxCell>
        <mxCell id="48glNEHDDhysdigHE6gb-40" value="Brachistochrone" style="text;html=1;strokeColor=none;fillColor=none;align=center;verticalAlign=middle;whiteSpace=wrap;rounded=0;fontSize=8;fontColor=#000000;" vertex="1" parent="1">
          <mxGeometry x="800" y="480" width="70" height="40" as="geometry" />
        </mxCell>
        <mxCell id="48glNEHDDhysdigHE6gb-41" value="" style="endArrow=none;html=1;rounded=0;fontSize=8;fontColor=#7EA6E0;strokeWidth=3;fillColor=#60a917;strokeColor=#97D077;" edge="1" parent="1">
          <mxGeometry width="50" height="50" relative="1" as="geometry">
            <mxPoint x="770" y="500" as="sourcePoint" />
            <mxPoint x="790" y="500" as="targetPoint" />
          </mxGeometry>
        </mxCell>
        <mxCell id="48glNEHDDhysdigHE6gb-42" value="" style="endArrow=none;html=1;rounded=0;fontSize=8;fontColor=#A680B8;fillColor=#a20025;strokeColor=#97D077;" edge="1" parent="1">
          <mxGeometry width="50" height="50" relative="1" as="geometry">
            <mxPoint x="530.0000000000001" y="530" as="sourcePoint" />
            <mxPoint x="540.0000000000001" y="520" as="targetPoint" />
            <Array as="points">
              <mxPoint x="540" y="530" />
            </Array>
          </mxGeometry>
        </mxCell>
      </root>
    </mxGraphModel>
  </diagram>
</mxfile>
